Coordinates
version=1
nRows=24
nColumns=24
inDegrees=yes

Units are S.I. units (second, meters, Newtons, ...)
Angles are in degrees.

endheader
time	pelvis_tilt	pelvis_list	pelvis_rotation	pelvis_tx	pelvis_ty	pelvis_tz	hip_flexion_r	hip_adduction_r	hip_rotation_r	knee_angle_r	ankle_angle_r	subtalar_angle_r	mtp_angle_r	hip_flexion_l	hip_adduction_l	hip_rotation_l	knee_angle_l	ankle_angle_l	subtalar_angle_l	mtp_angle_l	lumbar_extension	lumbar_bending	lumbar_rotation
      1.00000000	      4.60667878	      0.48547423	      0.65533362	      0.59200236	      1.04534150	      0.04506142	     -2.82540871	      1.43781126	     -3.98042464	    -10.65363268	      7.35030533	      0.00000009	      0.00000000	     18.75552943	     -2.31293716	     -4.30964640	    -56.89595443	      0.86689741	      0.00000481	      0.00000000	    -18.89138718	      0.79093964	      1.00444753
      1.01666667	      4.64287737	      0.48546731	      0.41736146	      0.59006742	      1.04526476	      0.04613688	     -4.27623510	      1.54078275	     -3.79108921	     -9.89860598	      7.74543059	      0.00000014	      0.00000000	     19.40027503	     -2.24823683	     -4.60511732	    -52.49589272	      1.06959640	      0.00000347	      0.00000000	    -19.01563110	      0.61925856	      1.32805422
      1.03333333	      4.65661690	      0.27909845	      0.23513839	      0.58807517	      1.04473627	      0.04733555	     -5.79700882	      1.87494933	     -3.66988299	     -8.95326925	      8.03344306	     -0.00000007	      0.00000000	     19.84708295	     -2.56598939	     -5.23389987	    -47.57043144	      0.97684320	      0.00000216	      0.00000000	    -19.15153929	      0.70264227	      1.64892668
      1.05000000	      4.78385054	     -0.03779910	      0.13193189	      0.58608912	      1.04405022	      0.04803469	     -7.39397466	      2.29365063	     -3.62270650	     -8.12212033	      8.33189925	      0.00000003	      0.00000000	     19.90828999	     -2.99648924	     -6.08397537	    -42.08038299	      0.54084159	      0.00000052	      0.00000000	    -19.46635313	      0.90941577	      1.78350802
      1.06666667	      4.66141705	     -0.64548551	     -0.15831664	      0.58397096	      1.04232418	      0.04892491	     -8.65078118	      2.97573141	     -3.28376014	     -7.41514714	      8.65543575	      0.00000002	      0.00000000	     20.06656013	     -3.75496880	     -7.21847938	    -36.33112313	     -0.09525288	     -0.00000071	      0.00000000	    -19.32117965	      1.43072631	      2.27978074
      1.08333333	      4.59056824	     -1.06987173	     -0.40569468	      0.58228508	      1.04036189	      0.04923309	    -10.03790436	      3.40741341	     -2.84052553	     -6.65564235	      9.02012920	     -0.00000006	      0.00000000	     19.86660040	     -4.14828109	     -8.40624055	    -30.12281057	     -1.00645257	     -0.00000163	      0.00000000	    -19.38659131	      1.66115411	      2.48040314
      1.10000000	      4.47831569	     -1.68079090	     -0.67027434	      0.58104485	      1.03785771	      0.04976630	    -11.47191303	      4.02784649	     -2.35317865	     -5.80325962	      9.30768397	      0.00000007	      0.00000000	     19.68374339	     -4.60511751	     -9.27203848	    -24.07251742	     -1.86381830	     -0.00000165	      0.00000000	    -19.27397268	      2.15518594	      2.90572181
      1.11666667	      4.35401111	     -2.23635181	     -0.90921938	      0.57987129	      1.03496701	      0.05002531	    -12.79549323	      4.56209974	     -1.75163041	     -5.20935201	      9.74605143	      0.00000008	      0.00000000	     19.38652214	     -4.81451807	     -9.50130413	    -17.99626502	     -2.63296283	     -0.00000129	      0.00000000	    -19.22872004	      2.61518884	      3.03669426
      1.13333333	      4.29066049	     -2.89705728	     -1.41470828	      0.57844780	      1.03176241	      0.05006922	    -14.03426232	      5.08313930	     -0.84095583	     -4.92745106	     10.30386954	      0.00000007	      0.00000000	     19.05418001	     -5.14168923	     -9.22258480	    -12.41256298	     -3.07311764	     -0.00000048	      0.00000000	    -19.26422293	      3.02561452	      3.57730540
      1.15000000	      4.46616042	     -3.51378425	     -1.64584752	      0.57782915	      1.02871346	      0.04963178	    -15.62397211	      5.57637884	     -0.18329929	     -4.53453823	     10.77168837	      0.00000024	      0.00000000	     18.33706588	     -5.34356759	     -8.05470793	     -7.15007050	     -3.26617363	      0.00000033	      0.00000000	    -19.46832421	      3.56546658	      3.98704298
      1.16666667	      4.51676028	     -3.94888930	     -2.00423606	      0.57760084	      1.02529753	      0.04951182	    -17.13341139	      5.83932239	      0.43340559	     -4.10081468	     11.21519338	      0.00000023	      0.00000000	     17.85688761	     -5.52594999	     -6.74933670	     -2.93692690	     -3.08861396	      0.00000114	      0.00000000	    -19.64772834	      3.68895705	      3.96666934
      1.18333333	      4.69986493	     -4.36025406	     -2.55178713	      0.57717020	      1.02233099	      0.04914381	    -18.52147277	      5.94101995	      1.16665917	     -4.17904165	     11.73730688	      0.00000035	      0.00000000	     17.33870792	     -5.80336457	     -5.66551355	      0.12125788	     -2.69400348	      0.00000179	      0.00000000	    -19.82166887	      3.84490929	      4.63648683
      1.20000000	      4.64423505	     -4.51231741	     -2.81916311	      0.57754818	      1.01926219	      0.04866835	    -19.72502869	      5.87125459	      1.53602114	     -4.14597435	     12.09928502	      0.00000051	      0.00000000	     17.20604046	     -5.79993761	     -4.62558412	      1.96593007	     -2.33296841	      0.00000222	      0.00000000	    -19.76388327	      3.67122964	      4.35142489
      1.21666667	      4.78443291	     -4.61752719	     -3.07788353	      0.57716401	      1.01705545	      0.04787873	    -20.67785312	      5.71527247	      1.91102704	     -4.91881745	     12.60016896	      0.00000080	      0.00000000	     17.22774377	     -5.76375996	     -3.83194334	      2.14515762	     -2.02511636	      0.00000227	      0.00000000	    -19.99579682	      3.42555209	      4.47458478
      1.23333333	      4.86258388	     -4.52026078	     -3.40347002	      0.57748223	      1.01526603	      0.04683563	    -21.43848547	      5.30806008	      2.33323910	     -5.94102045	     13.03880048	      0.00000110	      0.00000000	     17.34962873	     -5.52317679	     -3.34857881	      1.22392648	     -2.05492213	      0.00000215	      0.00000000	    -20.03179272	      2.92767334	      4.34408801
      1.25000000	      4.77980012	     -4.30868731	     -4.00490070	      0.57894157	      1.01393823	      0.04517741	    -21.87434024	      4.63713382	      2.95035927	     -7.35410271	     13.36028750	      0.00000155	      0.00000000	     17.57758082	     -5.19822092	     -3.29918377	     -0.51615971	     -2.47477861	      0.00000200	      0.00000000	    -19.77910666	      2.39601412	      4.55128493
      1.26666667	      4.59936582	     -3.98707905	     -4.05444574	      0.58103073	      1.01273259	      0.04326599	    -21.97879071	      4.10544695	      3.02347862	     -9.22779942	     13.61614313	      0.00000205	      0.00000000	     18.12115806	     -4.64756357	     -2.88258195	     -2.97426755	     -3.27397778	      0.00000171	      0.00000000	    -19.28831979	      1.79364028	      4.32130026
      1.28333333	      4.33882837	     -4.04445685	     -4.26200179	      0.58191748	      1.01190728	      0.04187084	    -21.51475794	      3.95640333	      3.27564897	    -11.94096706	     13.68915956	      0.00000257	      0.00000000	     18.69664484	     -4.59354106	     -2.70763269	     -5.45143466	     -4.40498175	      0.00000165	      0.00000000	    -19.02261471	      1.42340780	      4.22613416
      1.30000000	      4.18526225	     -3.82153570	     -4.48977372	      0.58433800	      1.01184178	      0.04024116	    -21.20859110	      3.47380205	      3.38047226	    -14.57990935	     13.24509978	      0.00000324	      0.00000000	     19.07640508	     -4.27683840	     -2.76237141	     -8.05089037	     -5.24666822	      0.00000150	      0.00000000	    -18.62676078	      0.68377382	      4.06459224
      1.31666667	      4.24959502	     -3.48935080	     -4.65632422	      0.58727992	      1.01258410	      0.03834896	    -20.57789408	      2.89288393	      3.30612940	    -18.23647971	     12.49192066	      0.00000405	      0.00000000	     19.09667476	     -3.83522428	     -2.94734906	    -10.53105422	     -5.71257147	      0.00000158	      0.00000000	    -18.38729648	     -0.08819417	      3.70495667
      1.33333333	      4.40505166	     -3.15950643	     -4.71763749	      0.59038076	      1.01384455	      0.03626749	    -19.52073956	      2.32897018	      2.93012633	    -22.73438275	     11.17121471	      0.00000489	      0.00000000	     18.86070927	     -3.37194674	     -3.09205587	    -12.79916211	     -5.74914311	      0.00000158	      0.00000000	    -18.20007393	     -0.85772521	      3.43435006
      1.35000000	      4.81343655	     -2.75027585	     -4.63591396	      0.59364096	      1.01583136	      0.03364589	    -18.18191078	      1.60515185	      1.99653299	    -27.97893654	      8.95848825	      0.00000569	      0.00000000	     18.11715948	     -2.75201118	     -3.15140167	    -14.68909265	     -5.41897517	      0.00000151	      0.00000000	    -18.24469706	     -1.61085005	      3.03492425
      1.36666667	      5.08182708	     -2.27672489	     -4.42665670	      0.59662155	      1.01773314	      0.03029358	    -16.08713946	      0.65576262	      0.47693512	    -33.92933000	      5.70937769	      0.00000644	      0.00000000	     17.27544571	     -2.00903249	     -3.16399289	    -16.09350683	     -4.84244209	      0.00000157	      0.00000000	    -18.19224959	     -2.30273534	      2.48410300
      1.38333333	      5.21343975	     -1.70549265	     -4.28866745	      0.59895274	      1.01948125	      0.02662454	    -13.32938654	     -0.70679595	     -1.38476434	    -40.23167879	      1.54837825	      0.00000667	      0.00000000	     16.33032094	     -1.16480687	     -3.27183995	    -16.99401873	     -4.07443239	      0.00000173	      0.00000000	    -18.10101569	     -3.00402488	      2.08336442
